<?xml version="1.0" standalone="no"?>
<!DOCTYPE svg PUBLIC "-//W3C//DTD SVG 20010904//EN"
 "http://www.w3.org/TR/2001/REC-SVG-20010904/DTD/svg10.dtd">
<svg version="1.0" xmlns="http://www.w3.org/2000/svg"
 width="895.000000pt" height="895.000000pt" viewBox="0 0 895.000000 895.000000"
 preserveAspectRatio="xMidYMid meet">
<metadata>
Created by potrace 1.14, written by Peter Selinger 2001-2017
</metadata>
<g transform="translate(0.000000,895.000000) scale(0.100000,-0.100000)"
fill="#000000" stroke="none">
<path d="M4125 8929 c-1362 -101 -2571 -862 -3255 -2049 -349 -607 -540 -1323
-540 -2030 0 -1315 633 -2548 1708 -3324 561 -405 1222 -658 1937 -742 212
-25 681 -25 890 0 960 115 1788 515 2455 1185 1018 1024 1417 2489 1061 3897
-364 1440 -1516 2588 -2960 2949 -418 105 -877 145 -1296 114z m-309 -403 c26
-26 34 -42 34 -71 0 -52 -53 -105 -105 -105 -52 0 -105 53 -105 105 0 52 53
105 105 105 29 0 45 -8 71 -34z m1882 -572 c140 -58 174 -234 66 -336 -104
-97 -264 -64 -325 67 -74 159 97 337 259 269z m-1428 -423 c0 -5 -7 -15 -16
-22 -33 -27 -133 -157 -198 -255 -320 -489 -409 -1113 -239 -1673 50 -167 46
-163 98 -92 46 62 142 138 216 169 129 55 307 58 430 8 11 -5 21 4 35 36 73
163 230 320 395 398 206 96 471 97 676 0 257 -120 439 -376 462 -647 l6 -76
35 -3 c119 -11 184 -38 260 -110 50 -47 103 -136 115 -193 10 -49 8 -162 -4
-194 l-10 -27 -1158 -2 -1158 -3 100 -100 c665 -667 1686 -787 2492 -294 139
85 313 232 436 367 26 28 49 52 51 52 3 0 0 -26 -14 -140 -75 -575 -369 -1136
-803 -1528 -397 -360 -871 -574 -1422 -643 -160 -20 -464 -15 -634 10 -281 42
-498 110 -756 236 -135 65 -356 202 -436 269 l-31 26 -922 0 -923 0 -32 45
c-68 95 -104 210 -103 336 1 162 53 290 165 404 108 108 209 158 351 174 67 8
167 1 212 -13 18 -6 27 5 66 86 57 117 140 224 232 296 l71 57 -22 120 c-64
354 -55 706 27 1050 84 353 264 716 497 1005 327 406 808 714 1328 850 125 33
125 33 125 21z m2104 -322 c47 -22 58 -95 20 -133 -38 -38 -111 -27 -133 20
-35 78 35 148 113 113z m-3608 -63 c26 -26 34 -42 34 -71 0 -52 -53 -105 -105
-105 -52 0 -105 53 -105 105 0 52 53 105 105 105 29 0 45 -8 71 -34z m4569
-646 c0 -18 -6 -26 -23 -28 -24 -4 -38 18 -28 44 3 9 15 14 28 12 17 -2 23
-10 23 -28z m-3071 -166 c31 -30 9 -84 -34 -84 -24 0 -50 26 -50 50 0 24 26
50 50 50 10 0 26 -7 34 -16z m2804 -499 c30 -35 29 -86 -2 -122 -20 -23 -32
-28 -71 -28 -39 0 -51 5 -71 28 -41 48 -26 124 30 148 35 14 89 2 114 -26z
m-5976 -156 c121 -39 210 -129 248 -248 64 -203 -44 -414 -248 -480 -201 -66
-418 45 -482 248 -94 297 187 577 482 480z m523 -919 c0 -18 -6 -26 -23 -28
-24 -4 -38 18 -28 44 3 9 15 14 28 12 17 -2 23 -10 23 -28z m-837 -425 c30
-35 29 -86 -2 -122 -20 -23 -32 -28 -71 -28 -39 0 -51 5 -71 28 -41 48 -26
124 30 148 35 14 89 2 114 -26z m838 -1496 c10 -17 -13 -36 -27 -22 -12 12 -4
33 11 33 5 0 12 -5 16 -11z m5839 -120 c81 -23 155 -124 155 -214 0 -60 -22
-110 -69 -156 -92 -93 -220 -93 -312 0 -91 90 -93 216 -6 308 63 66 141 87
232 62z m-4577 -216 c28 -17 59 -48 77 -77 26 -43 30 -59 30 -121 0 -62 -4
-78 -30 -121 -19 -30 -49 -60 -79 -79 -43 -26 -59 -30 -121 -30 -62 0 -78 4
-121 30 -30 19 -60 49 -79 79 -26 43 -30 59 -30 120 0 59 4 79 28 118 67 114
213 151 325 81z m868 -247 c26 -26 34 -42 34 -71 0 -29 -8 -45 -34 -71 -26
-26 -42 -34 -71 -34 -29 0 -45 8 -71 34 -26 26 -34 42 -34 71 0 29 8 45 34 71
26 26 42 34 71 34 29 0 45 -8 71 -34z"/>
</g>
</svg>
